HIERARCHY
ROOT Hips
{
  OFFSET 263.056 91.6644 -274.608
  CHANNELS 6 Xposition Yposition Zposition Zrotation Xrotation Yrotation
  JOINT LeftUpLeg
  {
    OFFSET 8.64259 1.95398 -2.38835
    CHANNELS 3 Zrotation Xrotation Yrotation
    JOINT LeftLeg
    {
      OFFSET 43.7702 0 0
      CHANNELS 3 Zrotation Xrotation Yrotation
      JOINT LeftFoot
      {
        OFFSET 40.6238 0 0
        CHANNELS 3 Zrotation Xrotation Yrotation
        JOINT LeftToeBase
        {
          OFFSET 12.7242 0 0
          CHANNELS 3 Zrotation Xrotation Yrotation
          End Site
          {
            OFFSET 0 0 0
          }
        }
      }
    }
  }
  JOINT RightUpLeg
  {
    OFFSET -8.2249 1.95398 -2.59336
    CHANNELS 3 Zrotation Xrotation Yrotation
    JOINT RightLeg
    {
      OFFSET 43.5653 0 0
      CHANNELS 3 Zrotation Xrotation Yrotation
      JOINT RightFoot
      {
        OFFSET 40.6238 0 0
        CHANNELS 3 Zrotation Xrotation Yrotation
        JOINT RightToeBase
        {
          OFFSET 12.7242 0 0
          CHANNELS 3 Zrotation Xrotation Yrotation
          End Site
          {
            OFFSET 0 0 0
          }
        }
      }
    }
  }
  JOINT Spine
  {
    OFFSET 0.165834 0.87714 6.61349
    CHANNELS 3 Zrotation Xrotation Yrotation
    JOINT Spine1
    {
      OFFSET 7.38963 1.71661e-005 0
      CHANNELS 3 Zrotation Xrotation Yrotation
      JOINT Spine2
      {
        OFFSET 11.9445 1.14441e-005 0
        CHANNELS 3 Zrotation Xrotation Yrotation
        JOINT Spine3
        {
          OFFSET 14.7254 4.19617e-005 0
          CHANNELS 3 Zrotation Xrotation Yrotation
          JOINT Spine4
          {
            OFFSET 10.9679 0 0
            CHANNELS 3 Zrotation Xrotation Yrotation
            JOINT RightShoulder
            {
              OFFSET 2.46616 -1.6653 3.69651
              CHANNELS 3 Zrotation Xrotation Yrotation
              JOINT RightArm
              {
                OFFSET 13.0012 0 0
                CHANNELS 3 Zrotation Xrotation Yrotation
                JOINT RightForeArm
                {
                  OFFSET 28.7848 1.52588e-005 0
                  CHANNELS 3 Zrotation Xrotation Yrotation
                  JOINT RightHand
                  {
                    OFFSET 26.5688 1.52588e-005 0
                    CHANNELS 3 Zrotation Xrotation Yrotation
                    End Site
                    {
                      OFFSET 0 0 0
                    }
                  }
                }
              }
            }
            JOINT LeftShoulder
            {
              OFFSET 2.38034 -1.29275 -3.7523
              CHANNELS 3 Zrotation Xrotation Yrotation
              JOINT LeftArm
              {
                OFFSET 16.3182 6.10352e-005 0
                CHANNELS 3 Zrotation Xrotation Yrotation
                JOINT LeftForeArm
                {
                  OFFSET 27.0901 0 0
                  CHANNELS 3 Zrotation Xrotation Yrotation
                  JOINT LeftHand
                  {
                    OFFSET 24.5451 1.52588e-005 0
                    CHANNELS 3 Zrotation Xrotation Yrotation
                    End Site
                    {
                      OFFSET 0 0 0
                    }
                  }
                }
              }
            }
            JOINT Neck
            {
              OFFSET 5.0226 -0.0266342 0
              CHANNELS 3 Zrotation Xrotation Yrotation
              JOINT Head
              {
                OFFSET 6.69364 2.86102e-005 0
                CHANNELS 3 Zrotation Xrotation Yrotation
                End Site
                {
                  OFFSET 0 0 0
                }
              }
            }
          }
        }
      }
    }
  }
}
MOTION
Frames:	14
Frame Time:	0.0416667
37.007 91.6801 -130.05 93.1676 -82.1623 95.1185 -172.356 -10.3131 96.3752 -32.5387 24.8008 2.6892 45.7013 -9.27137 -1.84403 58.1494 35.8459 8.38179 179.161 30.5947 92.2829 -28.2244 10.6479 1.53248 59.6846 -0.528407 -0.210612 43.0499 1.34458 7.72866 -1.36197 7.72092 -90.4106 11.4305 -2.90161 -0.523891 -0.237227 -2.92187 -0.395582 -22.7938 -2.60993 -1.37226 -2.78118 -2.60993 -1.37227 78.433 -55.0167 -116.176 26.1034 -4.70212 21.6251 -6.35281 -13.9702 -34.4956 -3.09105 -0.380069 5.7681 -101.488 -41.4728 58.2579 -25.323 4.80113 1.46441 10.665 7.68403 -49.1671 18.5032 1.86889 6.23481 5.46333 1.17713 1.45646 0.8513 0.915509 0.893496 
36.3036 91.8145 -120.992 107.065 -83.5821 108.888 -174.289 -3.33269 96.2341 -48.2148 20.5028 2.66126 35.9575 -15.95 -4.61731 35.6966 8.01943 11.3795 178.583 28.2083 94.2416 -37.5946 8.83929 1.47634 65.4003 -1.54572 -0.830136 34.7511 0.26094 10.2198 -1.14406 7.79775 -90.3532 11.2752 -2.4412 -0.461049 -0.393532 -2.45912 -0.353102 -22.9435 -2.18973 -1.17373 -2.93089 -2.18973 -1.17372 79.5765 -53.4729 -115.155 28.3387 -3.12898 18.7002 -8.55319 -14.115 -35.7393 -2.34097 -0.333538 6.66663 -102.471 -41.7987 56.8852 -26.9425 5.44461 2.55323 7.12971 6.86857 -41.3519 17.968 1.72976 5.75137 5.60937 0.735727 1.60396 0.298999 0.428831 0.255003 
35.7942 93.612 -111.931 123.941 -86.1502 125.359 -174.355 6.16517 94.5693 -57.0435 17.6824 1.41383 43.1043 -10.807 0.863997 40.0708 13.5168 8.29143 179.146 21.0924 95.4742 -35.9857 8.0081 0.607653 69.1906 -2.46819 -1.30744 29.9545 -0.542901 11.717 -0.697439 7.75272 -90.205 11.3697 -1.48336 -0.259898 -0.300451 -1.49336 -0.194358 -22.8413 -1.33668 -0.693774 -2.82864 -1.33668 -0.693779 79.1756 -52.4007 -116.143 29.17 -6.01317 16.597 -6.33621 -12.1211 -39.5176 -6.59484 -0.641289 5.33998 -102.527 -42.621 57.1832 -28.1587 7.40056 3.08349 5.78661 8.70729 -35.6558 14.9057 1.3974 5.3952 4.21603 0.0729952 1.74652 0.582961 -0.243409 -0.251377 
34.9758 95.308 -103.034 -158.696 -88.2066 -159.375 -173.049 13.5115 91.4286 -52.5091 14.9096 -0.405488 48.8778 -6.17947 3.2938 45.1741 19.453 6.23674 -179.826 13.98 95.1653 -32.2128 6.11854 -1.6147 71.0011 -2.85973 -1.48068 31.1798 -0.38652 12.7433 -0.244004 7.68856 -89.8557 11.4968 -0.417906 0.330597 -0.174179 -0.402951 0.348664 -22.7096 -0.497946 0.189714 -2.69697 -0.497941 0.189712 79.376 -51.538 -116.194 29.43 -7.69974 14.4867 -10.6617 -11.9443 -48.9988 -7.47975 -0.688486 4.82932 -101.924 -42.656 58.1254 -31.2979 6.03804 5.39058 6.71386 10.6516 -33.1531 12.8416 1.02801 3.9755 2.92538 -0.00453623 2.42379 1.09948 -0.440838 -0.964616 
34.6675 96.4438 -94.6002 -107.226 -86.2029 -108.319 -172.955 17.5967 90.0475 -38.1905 11.1214 -0.981757 54.7301 -0.480807 6.51319 46.5457 22.2312 10.4336 179.306 6.35454 94.1247 -26.8282 2.31602 -1.21624 70.7414 -2.93356 -1.5098 33.2474 0.0300834 10.1484 0.112517 7.64002 -89.7577 11.5928 0.337352 0.447829 -0.0781445 0.356734 0.432549 -22.6128 0.187168 0.528515 -2.60015 0.187164 0.528511 80.4352 -49.4801 -115.454 29.5666 -8.58335 12.5764 -15.0388 -10.6372 -58.5691 -7.26473 -0.696461 5.16185 -101.45 -42.8476 58.9399 -33.9346 6.1452 9.02727 5.31594 7.90901 -33.1426 12.6629 1.01481 3.98626 2.02145 0.290721 3.55551 1.59481 -0.339203 -1.59241 
34.6543 96.389 -86.2077 -82.3698 -84.3576 -83.13 -174.291 20.4764 89.8186 -19.0796 10.2187 -0.482349 57.4165 2.57792 7.3501 47.802 24.697 13.1315 178.314 0.221525 93.5611 -21.693 0.902481 -0.577308 71.8993 -3.62477 -1.83903 34.634 0.241965 10.326 0.339508 7.52089 -89.7784 11.8309 0.779433 0.358817 0.160175 0.794468 0.324154 -22.3759 0.635563 0.576483 -2.36328 0.635555 0.576469 81.1949 -48.285 -114.786 27.314 -9.98577 8.51054 -16.9759 -8.57531 -64.6207 -8.55267 -0.741931 4.34279 -100.883 -43.1685 59.9555 -35.8524 6.58472 11.3366 6.25749 10.0529 -33.836 12.3037 1.08 4.70073 2.74682 0.277208 5.2435 0.804349 -0.690194 -2.99174 
34.5882 95.2671 -77.8031 -74.517 -81.8872 -75.5963 -175.601 24.7198 90.254 -6.82547 12.7784 -0.163936 58.6285 2.4805 6.90935 48.8389 25.838 12.4252 177.716 -5.08685 92.3941 -18.8891 -1.14305 -1.35528 72.3258 -4.44722 -2.24131 40.4571 1.04943 8.3302 0.584622 7.45219 -89.7312 11.9676 1.28921 0.396598 0.297199 1.3054 0.33946 -22.2415 1.1104 0.765753 -2.22883 1.1104 0.765753 81.1937 -48.3613 -114.758 23.2202 -10.9799 5.05557 -20.3549 -6.78417 -70.666 -9.54321 -0.891355 5.48947 -100.391 -43.6854 60.9326 -37.19 6.47393 13.2119 6.14383 9.6609 -34.3082 13.9288 1.28333 5.21845 3.6691 0.73312 5.83963 -0.876622 -0.336397 -2.71466 
34.7891 93.6801 -69.2643 -76.3562 -78.8466 -77.5005 -175.9 28.9526 91.0188 -6.13272 15.6343 -0.331703 59.9419 3.36577 8.15257 50.1445 26.9661 10.8157 177.012 -8.15196 90.5735 -21.7959 -6.11108 -3.09295 70.5519 -4.30438 -2.25901 48.8468 2.25488 8.92777 0.891274 7.47173 -89.6789 11.9277 1.92355 0.432934 0.258092 1.94074 0.347819 -22.2858 1.70448 0.991164 -2.27316 1.70449 0.991168 81.6196 -46.9331 -114.674 22.7405 -9.28962 2.17349 -24.034 -7.96884 -71.1632 -11.0529 -0.840535 3.38408 -99.1405 -44.2036 63.068 -37.9646 4.35101 14.901 6.75098 7.84954 -36.2947 16.355 1.43511 4.87621 4.68415 1.21197 6.2892 -2.73089 0.0490752 -2.82894 
35.1417 92.3046 -59.0871 -80.0089 -78.2139 -82.3028 -175.283 30.3095 89.2201 -16.3283 14.571 -1.08585 58.6417 2.43093 6.84978 46.8886 22.2408 9.00091 176.307 -9.03541 87.8685 -30.7506 -9.6492 -5.47371 61.1025 -0.670015 -0.370354 58.5504 5.05127 15.345 1.02443 7.50757 -89.4712 11.8524 2.28605 0.810626 0.183245 2.31951 0.70918 -22.3623 1.93673 1.46037 -2.34967 1.93673 1.46038 81.5391 -46.9542 -114.788 23.3633 -7.55633 3.86895 -25.1516 -8.59513 -70.5381 -12.9725 -1.1635 5.61808 -98.2297 -43.4692 64.1868 -38.0646 2.92544 16.573 8.37685 7.16596 -41.4597 18.9076 1.975 6.55807 3.93856 0.894238 4.5735 -3.97773 0.0970241 -2.11469 
35.3776 90.813 -48.235 -80.6852 -78.3013 -83.3037 -174.113 33.0521 87.8911 -33.2345 15.7813 -2.11623 59.6446 3.13655 9.75342 48.1978 19.1695 -9.3817 178.51 -2.02582 87.4097 -47.4296 -5.99575 -6.58839 39.6295 5.24143 5.25246 36.4894 0.569737 19.0617 1.02165 7.40422 -89.3687 12.0559 2.32922 1.00441 0.386735 2.37117 0.900877 -22.1576 1.91968 1.65813 -2.14491 1.91968 1.65813 81.6382 -48.2578 -114.125 23.4564 -8.13805 7.04098 -22.0197 -9.48323 -65.8522 -14.7059 -1.34704 6.07095 -97.7625 -42.3908 64.4973 -35.409 1.2889 17.0043 9.06791 4.99288 -47.4252 20.7938 2.21901 6.86322 2.28782 0.873319 2.77415 -5.68782 0.450284 -1.44165 
35.1825 89.5109 -38.0012 -96.7441 -81.8209 -100.449 -174.458 29.3957 84.215 -44.2546 15.9448 -1.63484 63.8115 9.46326 15.2741 42.26 12.4739 -19.6718 178.519 11.3005 87.16 -69.2788 6.73677 -4.94399 38.6658 3.01959 3.40246 30.2395 -0.236384 5.19092 0.491617 7.69566 -89.1218 11.4714 1.38855 1.61017 -0.199694 1.45807 1.5475 -22.7296 0.840526 1.95294 -2.71696 0.840533 1.95294 81.5931 -49.9838 -113.536 23.2624 -6.52602 9.42421 -16.0553 -9.50357 -60.4845 -26.3805 -2.07542 4.70005 -97.5874 -39.707 63.7031 -26.569 -2.12021 14.7184 9.58323 2.45263 -56.1255 24.2931 2.50424 6.55151 -0.267733 1.14181 0.234075 -4.56037 1.09732 0.172027 
35.0005 90.3148 -29.2738 -110.028 -85.1174 -114.931 -175.829 22.0795 82.1786 -42.8842 16.4353 -0.812536 64.2747 13.4067 18.5951 48.2816 17.2151 -19.3425 176.438 31.6986 89.3274 -81.3441 11.9759 -3.53114 47.2501 0.151034 0.502901 38.9203 0.725079 3.85766 -0.121483 7.85274 -88.9317 11.1592 0.254753 2.10414 -0.51342 0.347088 2.09089 -23.0352 -0.389257 2.08346 -3.02253 -0.389245 2.08346 82.3912 -49.8544 -112.389 21.3806 1.67404 15.2983 -11.256 -3.43944 -66.3803 -37.7433 -3.00686 4.41225 -95.6599 -35.7667 65.2861 -10.9344 -9.59646 7.08337 11.1391 1.80447 -65.3605 23.9676 2.76805 7.79482 -1.4519 1.72435 -0.881345 -4.98858 1.79694 1.31266 
35.7588 94.2246 -21.2102 -148.242 -86.897 -149.171 -176.732 9.8969 85.1426 -31.3094 21.6901 0.675119 60.8306 11.6742 18.3269 48.8436 18.3304 -15.9448 172.952 50.6579 94.954 -85.9102 12.4696 -2.49942 49.5446 0.010614 0.367303 36.7784 0.522437 3.36056 -0.879806 7.95914 -89.5005 10.962 -1.52016 1.13876 -0.708786 -1.46858 1.20456 -23.2486 -1.79214 0.629174 -3.23597 -1.79213 0.629176 84.1602 -45.1252 -111.404 15.2787 6.05435 23.3714 -13.9635 -1.30126 -76.6919 -40.7189 -2.67883 2.85011 -92.3574 -28.6707 68.2919 1.81637 -23.1381 5.95697 8.80566 1.18699 -74.4993 25.3679 2.9054 7.72167 -3.51785 3.69418 0.79551 -6.07204 3.5137 2.82788 
37.1069 101.575 -11.2751 -154.054 -84.5165 -149.115 -174.825 -6.951 92.5357 -8.40126 22.3398 0.81403 44.1746 -5.50831 1.63121 43.3345 15.2094 -5.7091 166.911 58.3245 102.547 -82.8225 9.04563 -0.673168 51.4795 0.478983 0.658999 30.9599 -0.107294 5.52661 -0.982631 8.24381 -90.5169 10.3786 -2.19423 -0.835242 -1.2907 -2.22886 -0.737818 -23.8349 -1.84176 -1.45621 -3.82226 -1.84176 -1.45622 86.4893 -40.2356 -109.368 5.68614 7.36358 29.3815 -16.118 -1.02264 -80.1489 -38.4077 -2.9721 4.33008 -90.1706 -25.2883 71.2231 12.1576 -29.2891 9.67583 3.45373 0.790808 -78.1796 25.7815 2.07508 4.25094 -10.6836 4.63603 5.25307 -2.99671 4.41601 3.99884 
